<svg width="65" height="64" viewBox="0 0 65 64" fill="none" xmlns="http://www.w3.org/2000/svg">
<rect x="0.5" width="64" height="64" rx="32" fill="#FFD9E0"/>
<path opacity="0.4" d="M38.9636 28.2783C39.4171 28.2783 39.8661 28.189 40.2851 28.0155C40.7041 27.8419 41.0848 27.5876 41.4055 27.2669C41.7261 26.9462 41.9805 26.5655 42.154 26.1465C42.3276 25.7276 42.4169 25.2785 42.4169 24.825C42.4169 24.3715 42.3276 23.9225 42.154 23.5035C41.9805 23.0845 41.7261 22.7038 41.4055 22.3831C41.0848 22.0625 40.7041 21.8081 40.2851 21.6345C39.8661 21.461 39.4171 21.3717 38.9636 21.3717C38.0477 21.3717 37.1693 21.7355 36.5217 22.3831C35.8741 23.0308 35.5103 23.9091 35.5103 24.825C35.5103 25.7409 35.8741 26.6193 36.5217 27.2669C37.1693 27.9145 38.0477 28.2783 38.9636 28.2783Z" fill="#FF1843"/>
<path d="M26.0368 28.2783C26.4903 28.2783 26.9394 28.189 27.3584 28.0155C27.7773 27.8419 28.158 27.5876 28.4787 27.2669C28.7994 26.9462 29.0537 26.5655 29.2273 26.1465C29.4008 25.7276 29.4902 25.2785 29.4902 24.825C29.4902 24.3715 29.4008 23.9225 29.2273 23.5035C29.0537 23.0845 28.7994 22.7038 28.4787 22.3831C28.158 22.0625 27.7773 21.8081 27.3584 21.6345C26.9394 21.461 26.4903 21.3717 26.0368 21.3717C25.1209 21.3717 24.2426 21.7355 23.595 22.3831C22.9473 23.0308 22.5835 23.9091 22.5835 24.825C22.5835 25.7409 22.9473 26.6193 23.595 27.2669C24.2426 27.9145 25.1209 28.2783 26.0368 28.2783Z" fill="#FF1843"/>
<path d="M38.9636 42.6283C39.8795 42.6283 40.7578 42.2645 41.4055 41.6169C42.0531 40.9693 42.4169 40.0909 42.4169 39.175C42.4169 38.2591 42.0531 37.3808 41.4055 36.7331C40.7578 36.0855 39.8795 35.7217 38.9636 35.7217C38.0477 35.7217 37.1693 36.0855 36.5217 36.7331C35.8741 37.3808 35.5103 38.2591 35.5103 39.175C35.5103 40.0909 35.8741 40.9693 36.5217 41.6169C37.1693 42.2645 38.0477 42.6283 38.9636 42.6283Z" fill="#FF1843"/>
<path opacity="0.4" d="M26.0368 42.6283C26.9527 42.6283 27.8311 42.2645 28.4787 41.6169C29.1263 40.9693 29.4902 40.0909 29.4902 39.175C29.4902 38.2591 29.1263 37.3808 28.4787 36.7331C27.8311 36.0855 26.9527 35.7217 26.0368 35.7217C25.1209 35.7217 24.2426 36.0855 23.595 36.7331C22.9473 37.3808 22.5835 38.2591 22.5835 39.175C22.5835 40.0909 22.9473 40.9693 23.595 41.6169C24.2426 42.2645 25.1209 42.6283 26.0368 42.6283Z" fill="#FF1843"/>
</svg>
