<svg width="25" height="24" viewBox="0 0 25 24" fill="none" xmlns="http://www.w3.org/2000/svg">
<path opacity="0.4" d="M12.5002 23.6667C18.9437 23.6667 24.1668 18.4435 24.1668 12C24.1668 5.55651 18.9437 0.333344 12.5002 0.333344C6.05666 0.333344 0.833496 5.55651 0.833496 12C0.833496 18.4435 6.05666 23.6667 12.5002 23.6667Z" fill="#878C90"/>
<path d="M16.629 7.87234C16.4353 7.67661 16.1937 7.53499 15.9283 7.46158C15.6629 7.38818 15.3829 7.38554 15.1162 7.45392L10.6101 8.58044C10.2398 8.67217 9.90143 8.86324 9.63162 9.13306C9.36181 9.40287 9.17074 9.7412 9.079 10.1116L7.95249 14.6222C7.81455 15.1694 7.97088 15.735 8.37091 16.135C8.67438 16.4339 9.07441 16.5994 9.48823 16.5994C9.61697 16.5994 9.75032 16.5856 9.87906 16.5488L14.3897 15.4223C14.7601 15.3306 15.0984 15.1395 15.3682 14.8697C15.6381 14.5999 15.8291 14.2615 15.9209 13.8912L17.0474 9.3805C17.1853 8.83333 17.029 8.26777 16.629 7.87234Z" fill="#878C90"/>
</svg>
