<svg width="65" height="64" viewBox="0 0 65 64" fill="none" xmlns="http://www.w3.org/2000/svg">
<rect x="0.5" width="64" height="64" rx="32" fill="#D8F8E4"/>
<path opacity="0.4" d="M44.1668 30.5533C44.1668 30.2872 44.0611 30.032 43.873 29.8439C43.6848 29.6557 43.4296 29.55 43.1635 29.55H21.8368C21.2768 29.55 20.8335 29.9933 20.8335 30.5533C20.8335 37.425 25.6285 42.22 32.5002 42.22C39.3718 42.22 44.1668 37.4133 44.1668 30.5533Z" fill="#23C562"/>
<path d="M33.0366 36.55L36.3616 33.2367C36.7 32.8983 36.7 32.3383 36.3616 32C36.197 31.8373 35.9748 31.746 35.7433 31.746C35.5118 31.746 35.2896 31.8373 35.125 32L33.305 33.82V22.655C33.305 22.1767 32.9083 21.78 32.43 21.78C31.9516 21.78 31.555 22.1767 31.555 22.655V33.82L29.7233 32C29.5587 31.8373 29.3365 31.746 29.105 31.746C28.8735 31.746 28.6513 31.8373 28.4866 32C28.3116 32.175 28.23 32.3967 28.23 32.6183C28.23 32.84 28.3116 33.0617 28.4866 33.2367L31.8116 36.55C32.15 36.9 32.6983 36.9 33.0366 36.55Z" fill="#23C562"/>
</svg>
