<svg width="20" height="18" viewBox="0 0 20 18" fill="none" xmlns="http://www.w3.org/2000/svg">
<path d="M9.99998 6.403C11.05 6.403 12.04 6.813 12.78 7.552C13.52 8.301 13.93 9.29 13.93 10.329C13.9238 11.3709 13.507 12.3684 12.77 13.105C12.0333 13.8396 11.0354 14.2521 9.99498 14.2521C8.9546 14.2521 7.95667 13.8396 7.21998 13.105C6.85523 12.7406 6.56592 12.3078 6.36859 11.8315C6.17126 11.3552 6.06978 10.8446 6.06998 10.329C6.06646 9.81515 6.16548 9.30577 6.36122 8.83065C6.55697 8.35554 6.84552 7.92424 7.20998 7.562C7.57519 7.19373 8.00984 6.90158 8.48875 6.70246C8.96766 6.50334 9.48132 6.40122 9.99998 6.402V6.403ZM9.99998 7.9C9.34998 7.9 8.73998 8.15 8.26998 8.62C7.80998 9.079 7.55998 9.688 7.56998 10.318V10.328C7.56998 10.977 7.81998 11.586 8.27998 12.046C8.73998 12.506 9.34998 12.755 9.99998 12.755C11.34 12.755 12.42 11.666 12.43 10.328C12.43 9.678 12.18 9.068 11.72 8.609C11.26 8.149 10.65 7.9 9.99998 7.9V7.9ZM15.61 6.162C16.11 6.162 16.52 6.572 16.52 7.072C16.52 7.571 16.11 7.97 15.61 7.97C15.11 7.97 14.71 7.57 14.71 7.071C14.71 6.571 15.11 6.162 15.61 6.162Z" fill="#878C90"/>
<path opacity="0.4" d="M15.44 3.236L15.34 3.016C15.07 2.447 14.76 1.788 14.57 1.408C14.11 0.51 13.32 0.01 12.35 0H7.64C6.67 0.01 5.89 0.51 5.43 1.408C5.23 1.808 4.89 2.528 4.61 3.117L4.55 3.237C4.52 3.317 4.44 3.357 4.36 3.357C3.20495 3.35726 2.09718 3.81574 1.27978 4.63183C0.462378 5.44792 0.00211884 6.55495 0 7.71L0 13.644C0.00132486 14.7996 0.461234 15.9074 1.27872 16.7241C2.09621 17.5408 3.20443 17.9997 4.36 18H15.64C18.04 18 20 16.042 20 13.645V7.71C19.9966 6.55517 19.5359 5.4487 18.7189 4.63258C17.9018 3.81646 16.7948 3.35711 15.64 3.355C15.55 3.355 15.48 3.305 15.44 3.235V3.236Z" fill="#878C90"/>
</svg>
