<svg width="25" height="25" viewBox="0 0 25 25" fill="none" xmlns="http://www.w3.org/2000/svg">
<defs>
<radialGradient id="paint0_radial_2291_114" cx="0" cy="0" r="1" gradientUnits="userSpaceOnUse" gradientTransform="translate(6.81231 24.7028) rotate(59.0706) scale(22.3054 21.4394)">
<stop stop-color="#23C562"/>
<stop offset="0.553883" stop-color="#77D21C"/>
<stop offset="1" stop-color="#17DCD0"/>
</radialGradient>
</defs>
<rect x="1" y="23" width="21" height="23" rx="10.5" transform="rotate(-90 1 23)" fill="url(#paint0_radial_2291_114)"/>
<path d="M7.49265 7.02277H10.4779C11.3053 7.02277 11.9706 7.63338 11.9706 8.39273V14.859C11.9706 15.1643 11.8512 15.4696 11.6465 15.7123L10.1538 17.4267C9.55676 18.1078 8.41382 18.1078 7.81676 17.4267L6.32412 15.7123C6.11941 15.4696 6 15.1643 6 14.859L6 8.39273C6 7.63338 6.66529 7.02277 7.49265 7.02277Z" fill="white"/>
<path opacity="0.4" d="M18.6831 7.51599L20.1758 9.22258C20.3805 9.46526 20.4999 9.77057 20.4999 10.0837V16.55C20.4999 17.3093 19.8346 17.9199 19.0072 17.9199H16.0219C15.1946 17.9199 14.5293 17.3093 14.5293 16.55V10.0837C14.5293 9.77057 14.6487 9.46526 14.8534 9.22258L16.3461 7.51599C16.9431 6.82709 18.0861 6.82709 18.6831 7.51599Z" fill="white"/>
</svg>
