<svg width="25" height="24" viewBox="0 0 25 24" fill="none" xmlns="http://www.w3.org/2000/svg">
<path opacity="0.4" d="M19.4768 10.5883V15.255C19.4768 15.5583 19.4652 15.85 19.4302 16.13C19.1618 19.28 17.3068 20.8433 13.8885 20.8433H13.4218C13.1302 20.8433 12.8502 20.9833 12.6752 21.2167L11.2752 23.0833C10.6568 23.9117 9.6535 23.9117 9.03516 23.0833L7.63516 21.2167C7.54178 21.1079 7.42764 21.0189 7.29943 20.9548C7.17123 20.8907 7.03152 20.8528 6.8885 20.8433H6.42183C2.70016 20.8433 0.833496 19.9217 0.833496 15.255V10.5883C0.833496 7.17 2.4085 5.315 5.54683 5.04667C5.82683 5.01167 6.1185 5 6.42183 5H13.8885C17.6102 5 19.4768 6.86667 19.4768 10.5883Z" fill="#878C90"/>
<path d="M10.1549 14.3333C9.50161 14.3333 8.98828 13.8083 8.98828 13.1667C8.98828 12.525 9.51328 12 10.1549 12C10.7966 12 11.3216 12.525 11.3216 13.1667C11.3216 13.8083 10.8083 14.3333 10.1549 14.3333Z" fill="#878C90"/>
<path d="M14.2384 14.3333C13.5851 14.3333 13.0718 13.8083 13.0718 13.1667C13.0718 12.525 13.5968 12 14.2384 12C14.8801 12 15.4051 12.525 15.4051 13.1667C15.4051 13.8083 14.8801 14.3333 14.2384 14.3333Z" fill="#878C90"/>
<path d="M6.08366 14.3333C5.43033 14.3333 4.91699 13.8083 4.91699 13.1667C4.91699 12.525 5.44199 12 6.08366 12C6.72533 12 7.25033 12.525 7.25033 13.1667C7.25033 13.8083 6.72533 14.3333 6.08366 14.3333Z" fill="#878C90"/>
<path d="M24.1435 5.92168V10.5883C24.1435 14.0183 22.5685 15.8617 19.4302 16.13C19.4652 15.85 19.4769 15.5583 19.4769 15.255V10.5883C19.4769 6.86668 17.6102 5.00001 13.8885 5.00001H6.42188C6.11854 5.00001 5.82687 5.01168 5.54688 5.04668C5.81521 1.90834 7.67021 0.333344 11.0885 0.333344H18.5552C22.2769 0.333344 24.1435 2.20001 24.1435 5.92168Z" fill="#878C90"/>
</svg>
