<svg width="20" height="18" viewBox="0 0 20 18" fill="none" xmlns="http://www.w3.org/2000/svg">
<path opacity="0.4" d="M10.0001 17.27C13.5301 17.27 16.8201 15.19 19.1101 11.59C20.0101 10.18 20.0101 7.81 19.1101 6.4C16.8201 2.8 13.5301 0.720001 10.0001 0.720001C6.47009 0.720001 3.18009 2.8 0.890088 6.4C-0.00991213 7.81 -0.00991213 10.18 0.890088 11.59C3.18009 15.19 6.47009 17.27 10.0001 17.27Z" fill="#878C90"/>
<path d="M13.5802 9.0002C13.5802 10.9802 11.9802 12.5802 10.0002 12.5802C8.02017 12.5802 6.42017 10.9802 6.42017 9.0002C6.42017 7.0202 8.02017 5.4202 10.0002 5.4202C11.9802 5.4202 13.5802 7.0202 13.5802 9.0002Z" fill="#878C90"/>
</svg>
