<svg width="20" height="20" viewBox="0 0 20 20" fill="none" xmlns="http://www.w3.org/2000/svg">
<path opacity="0.4" d="M14.333 20H5.666C2.276 20 0 17.623 0 14.084V5.917C0 2.378 2.277 0 5.666 0H14.334C17.724 0 20 2.378 20 5.917V14.084C20 17.623 17.723 20 14.333 20Z" fill="#878C90"/>
<path d="M13.428 11.09C13.65 10.799 14.474 9.889 15.539 10.537C16.219 10.945 16.789 11.497 17.4 12.087C17.633 12.314 17.8 12.572 17.91 12.847C18.243 13.679 18.07 14.679 17.714 15.503C17.509 15.986 17.202 16.4189 16.8139 16.772C16.4259 17.1252 15.9661 17.3902 15.466 17.549C15.0132 17.69 14.5412 17.7599 14.067 17.756H5.68701C4.85201 17.756 4.11401 17.562 3.50901 17.198C3.13001 16.97 3.06301 16.445 3.34401 16.103C3.81401 15.533 4.27801 14.961 4.74601 14.383C5.63801 13.28 6.23901 12.96 6.90701 13.241C7.17801 13.357 7.45001 13.531 7.73001 13.716C8.47601 14.21 9.51301 14.888 10.88 14.152C11.82 13.638 12.362 12.756 12.836 11.992C13.03 11.681 13.214 11.371 13.428 11.09V11.09ZM6.76001 4.189C7.41892 4.19006 8.05053 4.45235 8.51635 4.91836C8.98218 5.38438 9.24421 6.01609 9.24501 6.675C9.24421 7.33382 8.98215 7.96543 8.51629 8.43128C8.05043 8.89714 7.41883 9.1592 6.76001 9.16C6.10111 9.15947 5.46935 8.89749 5.00343 8.43157C4.53752 7.96566 4.27554 7.3339 4.27501 6.675C4.27554 6.01601 4.53749 5.38414 5.00337 4.91807C5.46926 4.452 6.10102 4.18979 6.76001 4.189V4.189Z" fill="#878C90"/>
</svg>
