<svg width="26" height="24" viewBox="0 0 26 24" fill="none" xmlns="http://www.w3.org/2000/svg">
<path d="M25.0575 9.6498H24.0673V9.6H13.003V14.4H19.9508C18.9372 17.1942 16.2135 19.2 13.003 19.2C8.92957 19.2 5.6269 15.9762 5.6269 12C5.6269 8.0238 8.92957 4.8 13.003 4.8C14.8834 4.8 16.594 5.4924 17.8965 6.6234L21.3737 3.2292C19.1781 1.2318 16.2412 0 13.003 0C6.21392 0 0.709473 5.373 0.709473 12C0.709473 18.627 6.21392 24 13.003 24C19.7922 24 25.2966 18.627 25.2966 12C25.2966 11.1954 25.2118 10.41 25.0575 9.6498Z" fill="#FFC107"/>
<path d="M2.12671 6.4146L6.16576 9.306C7.25866 6.6648 9.90547 4.8 13.0028 4.8C14.8831 4.8 16.5938 5.4924 17.8963 6.6234L21.3735 3.2292C19.1779 1.2318 16.241 0 13.0028 0C8.28087 0 4.18588 2.6022 2.12671 6.4146Z" fill="#FF3D00"/>
<path d="M13.0032 24C16.1786 24 19.0639 22.8138 21.2454 20.8848L17.4406 17.742C16.1648 18.689 14.6059 19.2012 13.0032 19.2C9.80564 19.2 7.0906 17.2098 6.06777 14.4324L2.05884 17.4474C4.09343 21.3336 8.2253 24 13.0032 24Z" fill="#4CAF50"/>
<path d="M25.0574 9.6498H24.0671V9.6H13.0029V14.4H19.9506C19.4658 15.7298 18.5924 16.8919 17.4385 17.7426L17.4403 17.7414L21.2452 20.8842C20.9759 21.123 25.2965 18 25.2965 12C25.2965 11.1954 25.2117 10.41 25.0574 9.6498Z" fill="#1976D2"/>
</svg>
