<svg width="25" height="24" viewBox="0 0 25 24" fill="none" xmlns="http://www.w3.org/2000/svg">
<path opacity="0.4" d="M21.8801 5.95667L15.1601 1.255C13.3284 -0.0283349 10.5168 0.0416654 8.75511 1.40667L2.91011 5.96833C1.74344 6.87833 0.821777 8.745 0.821777 10.215V18.265C0.821777 21.24 3.23678 23.6667 6.21178 23.6667H18.7884C21.7634 23.6667 24.1784 21.2517 24.1784 18.2767V10.3667C24.1784 8.79167 23.1634 6.855 21.8801 5.95667V5.95667Z" fill="url(#paint0_radial_113_736)"/>
<path d="M12.5 19.875C12.0217 19.875 11.625 19.4783 11.625 19V15.5C11.625 15.0217 12.0217 14.625 12.5 14.625C12.9783 14.625 13.375 15.0217 13.375 15.5V19C13.375 19.4783 12.9783 19.875 12.5 19.875Z" fill="url(#paint1_radial_113_736)"/>
<defs>
<radialGradient id="paint0_radial_113_736" cx="0" cy="0" r="1" gradientUnits="userSpaceOnUse" gradientTransform="translate(7.28636 2.06327) rotate(56.6959) scale(23.2226 23.2329)">
<stop stop-color="#23C562"/>
<stop offset="0.553883" stop-color="#77D21C"/>
<stop offset="1" stop-color="#17DCD0"/>
</radialGradient>
<radialGradient id="paint1_radial_113_736" cx="0" cy="0" r="1" gradientUnits="userSpaceOnUse" gradientTransform="translate(12.1094 15.0137) rotate(77.6609) scale(4.47073 2.03467)">
<stop stop-color="#23C562"/>
<stop offset="0.553883" stop-color="#77D21C"/>
<stop offset="1" stop-color="#17DCD0"/>
</radialGradient>
</defs>
</svg>
