<svg width="65" height="64" viewBox="0 0 65 64" fill="none" xmlns="http://www.w3.org/2000/svg">
<rect x="0.5" width="64" height="64" rx="32" fill="#FFF3D4"/>
<path d="M42.3033 22.7353V27.5392C42.3033 28.8706 41.2327 29.9412 39.9013 29.9412H28.5641C28.0288 29.9412 27.4935 29.749 27.068 29.4196L24.0621 27.0176C22.868 26.0569 22.868 24.2176 24.0621 23.2569L27.068 20.8549C27.4935 20.5255 28.0288 20.3333 28.5641 20.3333H39.9013C41.2327 20.3333 42.3033 21.4039 42.3033 22.7353Z" fill="#FFB800"/>
<path opacity="0.4" d="M41.4384 40.7431L38.4463 43.1451C38.0208 43.4745 37.4855 43.6667 36.9365 43.6667H25.5992C24.2679 43.6667 23.1973 42.5961 23.1973 41.2647V36.4608C23.1973 35.1294 24.2679 34.0588 25.5992 34.0588H36.9365C37.4855 34.0588 38.0208 34.251 38.4463 34.5804L41.4384 36.9824C42.6463 37.9431 42.6463 39.7824 41.4384 40.7431Z" fill="#FFB800"/>
</svg>
