<svg width="21" height="22" viewBox="0 0 21 22" fill="none" xmlns="http://www.w3.org/2000/svg">
<path d="M19.3421 9.34268H12.1579V2.15847C12.1579 1.25216 11.4063 0.50058 10.5 0.50058C9.59368 0.50058 8.8421 1.25216 8.8421 2.15847V9.34268H1.65789C0.751579 9.34268 0 10.0943 0 11.0006C0 11.9069 0.751579 12.6585 1.65789 12.6585H8.8421V19.8427C8.8421 20.749 9.59368 21.5006 10.5 21.5006C11.4063 21.5006 12.1579 20.749 12.1579 19.8427V12.6585H19.3421C20.2484 12.6585 21 11.9069 21 11.0006C21 10.0943 20.2484 9.34268 19.3421 9.34268Z" fill="white"/>
</svg>
