<svg width="23" height="24" viewBox="0 0 23 24" fill="none" xmlns="http://www.w3.org/2000/svg">
<path opacity="0.8" d="M12.5497 0.940002L12.5147 1.02167L9.13141 8.87333H5.80641C5.01307 8.87333 4.26641 9.025 3.56641 9.32833L5.60807 4.45167L5.65474 4.34667L5.72474 4.16C5.75974 4.07834 5.78307 4.00834 5.81807 3.95C7.34641 0.415002 9.07307 -0.389998 12.5497 0.940002Z" fill="#878C90"/>
<path d="M18.8385 9.10667C18.3135 8.955 17.7652 8.87334 17.1935 8.87334H9.13184L12.5152 1.02167L12.5502 0.940002C12.7135 0.998336 12.8885 1.08 13.0635 1.13834L15.6418 2.22334C17.0768 2.81834 18.0802 3.43667 18.6985 4.18334C18.8035 4.32334 18.8968 4.45167 18.9902 4.60334C19.0952 4.76667 19.1768 4.93 19.2235 5.105C19.2702 5.21 19.3052 5.30334 19.3285 5.40834C19.6318 6.4 19.4452 7.60167 18.8385 9.10667Z" fill="#878C90"/>
<path opacity="0.4" d="M22.8866 14.5667V16.8417C22.8866 17.075 22.875 17.3083 22.8633 17.53C22.6416 21.6133 20.3666 23.6667 16.0499 23.6667H6.94995C6.65828 23.6667 6.38995 23.6433 6.12161 23.6083C2.41161 23.3633 0.428281 21.38 0.171615 17.67C0.136615 17.39 0.113281 17.1217 0.113281 16.8417V14.5667C0.113281 12.2217 1.53661 10.2033 3.56661 9.32832C4.26661 9.02499 5.01328 8.87332 5.80661 8.87332H17.1933C17.7649 8.87332 18.3133 8.95499 18.8383 9.10666C20.0085 9.46372 21.0333 10.1868 21.7621 11.1696C22.4908 12.1525 22.8849 13.3432 22.8866 14.5667Z" fill="#878C90"/>
<path opacity="0.6" d="M5.60828 4.45166L3.56661 9.32833C2.54241 9.76893 1.66962 10.4998 1.05594 11.4306C0.44227 12.3615 0.114569 13.4517 0.113281 14.5667V11.1483C0.113281 7.83499 2.46995 5.06999 5.60828 4.45166Z" fill="#878C90"/>
<path opacity="0.6" d="M22.8867 11.1483V14.5667C22.885 13.3432 22.4909 12.1525 21.7622 11.1697C21.0334 10.1868 20.0086 9.46374 18.8384 9.10668C19.445 7.60168 19.6317 6.40001 19.3284 5.40834C19.305 5.30334 19.27 5.21001 19.2234 5.10501C20.3282 5.68107 21.2539 6.54907 21.8998 7.61459C22.5457 8.68011 22.8871 9.90235 22.8867 11.1483Z" fill="#878C90"/>
</svg>
