<svg width="40" height="40" viewBox="0 0 40 40" fill="none" xmlns="http://www.w3.org/2000/svg">
<rect width="40" height="40" rx="20" fill="#F4F6F9"/>
<path opacity="0.4" d="M20 10C17.38 10 15.25 12.13 15.25 14.75C15.25 17.32 17.26 19.4 19.88 19.49C19.96 19.48 20.04 19.48 20.1 19.49H20.17C21.3994 19.449 22.5646 18.9315 23.4193 18.0469C24.274 17.1623 24.7512 15.98 24.75 14.75C24.75 12.13 22.62 10 20 10Z" fill="#61656A"/>
<path d="M25.08 22.15C22.29 20.29 17.74 20.29 14.93 22.15C13.66 23 12.96 24.15 12.96 25.38C12.96 26.61 13.66 27.75 14.92 28.59C16.32 29.53 18.16 30 20 30C21.84 30 23.68 29.53 25.08 28.59C26.34 27.74 27.04 26.6 27.04 25.36C27.03 24.13 26.34 22.99 25.08 22.15Z" fill="#61656A"/>
</svg>
