<svg width="65" height="64" viewBox="0 0 65 64" fill="none" xmlns="http://www.w3.org/2000/svg">
<rect x="0.5" width="64" height="64" rx="32" fill="#D9E6FF"/>
<path opacity="0.4" d="M25.6281 26.1203L36.1515 22.6087C40.8765 21.0337 43.4431 23.612 41.8798 28.337L38.3681 38.8603C36.0115 45.942 32.1381 45.942 29.7815 38.8603L28.7431 35.7337L25.6165 34.6953C18.5465 32.3503 18.5465 28.4887 25.6281 26.1203V26.1203Z" fill="#1867FF"/>
<path d="M31.4731 32.7353L35.9181 28.2787L31.4731 32.7353Z" fill="#1867FF"/>
<path d="M31.4729 33.6103C31.2512 33.6103 31.0296 33.5287 30.8546 33.3537C30.6918 33.189 30.6006 32.9668 30.6006 32.7353C30.6006 32.5038 30.6918 32.2816 30.8546 32.117L35.2879 27.6603C35.6262 27.322 36.1862 27.322 36.5246 27.6603C36.8629 27.9987 36.8629 28.5587 36.5246 28.897L32.0912 33.3537C31.9162 33.517 31.6946 33.6103 31.4729 33.6103Z" fill="#1867FF"/>
</svg>
